<svg width="56" height="57" viewBox="0 0 56 57" fill="none" xmlns="http://www.w3.org/2000/svg">
<g filter="url(#filter0_dd_2061_124258)">
<rect x="3" y="4" width="48" height="48" rx="16" fill="#edebf3"/>
<path d="M32.8809 29.8816C33.4902 29.8816 34.0059 29.4128 34.0059 28.7566C34.0059 28.1472 33.4902 27.6316 32.8809 27.6316C32.2715 27.6316 31.7559 28.1472 31.7559 28.7566C31.7559 29.4128 32.2715 29.8816 32.8809 29.8816ZM20.459 29.8816C21.0684 29.8816 21.584 29.4128 21.584 28.7566C21.584 28.1472 21.0684 27.6316 20.459 27.6316C19.8496 27.6316 19.334 28.1472 19.334 28.7566C19.334 29.4128 19.8496 29.8816 20.459 29.8816ZM33.3027 23.1316C37.1465 25.241 39.7715 29.1316 40.1934 33.7253H13.1934C13.5684 29.1316 16.1934 25.241 20.0371 23.1316L17.7871 19.241C17.6934 19.1003 17.6934 18.9128 17.7871 18.7722C17.8809 18.5847 18.0215 18.491 18.209 18.491C18.3965 18.491 18.5371 18.6316 18.6309 18.7722L20.8809 22.7097C24.584 21.0691 28.7559 21.0691 32.459 22.7097L34.709 18.7722C34.8027 18.6316 34.9434 18.491 35.1309 18.491C35.3184 18.491 35.459 18.5847 35.5527 18.7722C35.6465 18.9128 35.6465 19.1003 35.5527 19.241L33.3027 23.1316Z" fill="#352F44"/>
</g>
<defs>
<filter id="filter0_dd_2061_124258" x="0" y="0" width="55.5" height="56.5" filterUnits="userSpaceOnUse" color-interpolation-filters="sRGB">
<feFlood flood-opacity="0" result="BackgroundImageFix"/>
<feColorMatrix in="SourceAlpha" type="matrix" values="0 0 0 0 0 0 0 0 0 0 0 0 0 0 0 0 0 0 127 0" result="hardAlpha"/>
<feOffset dx="1.5" dy="1.5"/>
<feGaussianBlur stdDeviation="1.5"/>
<feComposite in2="hardAlpha" operator="out"/>
<feColorMatrix type="matrix" values="0 0 0 0 0.121111 0 0 0 0 0.133333 0 0 0 0 0.115 0 0 0 1 0"/>
<feBlend mode="normal" in2="BackgroundImageFix" result="effect1_dropShadow_2061_124258"/>
<feColorMatrix in="SourceAlpha" type="matrix" values="0 0 0 0 0 0 0 0 0 0 0 0 0 0 0 0 0 0 127 0" result="hardAlpha"/>
<feOffset dy="-1"/>
<feGaussianBlur stdDeviation="1.5"/>
<feComposite in2="hardAlpha" operator="out"/>
<feColorMatrix type="matrix" values="0 0 0 0 0.225625 0 0 0 0 0.2375 0 0 0 0 0.219688 0 0 0 1 0"/>
<feBlend mode="normal" in2="effect1_dropShadow_2061_124258" result="effect2_dropShadow_2061_124258"/>
<feBlend mode="normal" in="SourceGraphic" in2="effect2_dropShadow_2061_124258" result="shape"/>
</filter>
</defs>
</svg>
