<svg width="20" height="20" viewBox="0 0 20 20" fill="none" xmlns="http://www.w3.org/2000/svg">
<g id="Group">
<path id="Vector" d="M10 20C15.5228 20 20 15.5228 20 10C20 4.47715 15.5228 0 10 0C4.47715 0 0 4.47715 0 10C0 15.5228 4.47715 20 10 20Z" fill="#E84142"/>
<path id="Vector_2" d="M13.5265 10.2598C13.873 9.66142 14.432 9.66142 14.7785 10.2598L16.9359 14.0472C17.2824 14.6457 16.9989 15.1339 16.306 15.1339H11.9596C11.2745 15.1339 10.9911 14.6457 11.3296 14.0472L13.5265 10.2598ZM9.35327 2.9685C9.69972 2.37008 10.2509 2.37008 10.5974 2.9685L11.0777 3.83464L12.2115 5.82677C12.4871 6.3937 12.4871 7.06299 12.2115 7.62992L8.40838 14.2205C8.06193 14.7559 7.48712 15.0945 6.84933 15.1339H3.69185C2.99894 15.1339 2.71547 14.6535 3.06193 14.0472L9.35327 2.9685Z" fill="white"/>
</g>
</svg>
