<svg width="56" height="57" viewBox="0 0 56 57" fill="none" xmlns="http://www.w3.org/2000/svg">
<g filter="url(#filter0_dd_2061_123831)">
<rect x="3" y="4" width="48" height="48" rx="16" fill="#edebf3"/>
<g clip-path="url(#clip0_2061_123831)">
<path d="M38.9542 17.01C36.7861 16.0575 34.4972 15.3817 32.146 15C31.8243 15.5519 31.5332 16.1197 31.2739 16.7011C28.7695 16.339 26.2227 16.339 23.7182 16.7011C23.4588 16.1198 23.1677 15.552 22.8461 15C20.4935 15.3849 18.2031 16.0623 16.0328 17.0149C11.7241 23.132 10.5561 29.0971 11.1401 34.9776C13.6634 36.7665 16.4876 38.127 19.4901 39C20.1661 38.1275 20.7644 37.2018 21.2784 36.2329C20.302 35.883 19.3597 35.4512 18.4622 34.9427C18.6984 34.7783 18.9294 34.609 19.1526 34.4446C21.764 35.623 24.6142 36.234 27.5 36.234C30.3857 36.234 33.2359 35.623 35.8473 34.4446C36.0731 34.6214 36.3041 34.7908 36.5377 34.9427C35.6385 35.4521 34.6944 35.8846 33.7164 36.2354C34.2298 37.2039 34.828 38.1287 35.5047 39C38.5097 38.1305 41.3361 36.7707 43.8598 34.9801C44.545 28.1606 42.6892 22.2503 38.9542 17.01ZM22.0181 31.3611C20.3907 31.3611 19.0462 29.944 19.0462 28.2005C19.0462 26.457 20.344 25.0274 22.013 25.0274C23.6819 25.0274 25.016 26.457 24.9875 28.2005C24.9589 29.944 23.6767 31.3611 22.0181 31.3611ZM32.9818 31.3611C31.3518 31.3611 30.0125 29.944 30.0125 28.2005C30.0125 26.457 31.3103 25.0274 32.9818 25.0274C34.6534 25.0274 35.9771 26.457 35.9485 28.2005C35.92 29.944 34.6404 31.3611 32.9818 31.3611Z" fill="#352F44"/>
</g>
</g>
<defs>
<filter id="filter0_dd_2061_123831" x="0" y="0" width="55.5" height="56.5" filterUnits="userSpaceOnUse" color-interpolation-filters="sRGB">
<feFlood flood-opacity="0" result="BackgroundImageFix"/>
<feColorMatrix in="SourceAlpha" type="matrix" values="0 0 0 0 0 0 0 0 0 0 0 0 0 0 0 0 0 0 127 0" result="hardAlpha"/>
<feOffset dx="1.5" dy="1.5"/>
<feGaussianBlur stdDeviation="1.5"/>
<feComposite in2="hardAlpha" operator="out"/>
<feColorMatrix type="matrix" values="0 0 0 0 0.573629 0 0 0 0 0.5875 0 0 0 0 0.567917 0 0 0 0.4 0"/>
<feBlend mode="normal" in2="BackgroundImageFix" result="effect1_dropShadow_2061_123831"/>
<feColorMatrix in="SourceAlpha" type="matrix" values="0 0 0 0 0 0 0 0 0 0 0 0 0 0 0 0 0 0 127 0" result="hardAlpha"/>
<feOffset dy="-1"/>
<feGaussianBlur stdDeviation="1.5"/>
<feComposite in2="hardAlpha" operator="out"/>
<feColorMatrix type="matrix" values="0 0 0 0 1 0 0 0 0 1 0 0 0 0 1 0 0 0 1 0"/>
<feBlend mode="normal" in2="effect1_dropShadow_2061_123831" result="effect2_dropShadow_2061_123831"/>
<feBlend mode="normal" in="SourceGraphic" in2="effect2_dropShadow_2061_123831" result="shape"/>
</filter>
<clipPath id="clip0_2061_123831">
<rect width="33" height="24" fill="white" transform="translate(11 15)"/>
</clipPath>
</defs>
</svg>
