<svg width="24" height="18" viewBox="0 0 24 18" fill="none" xmlns="http://www.w3.org/2000/svg">
<g filter="#edebf3">
<path d="M2.25 0H21.75C22.9688 0 24 1.03125 24 2.25C24 3 23.625 3.65625 23.0625 4.07812L12.8906 11.7188C12.3281 12.1406 11.625 12.1406 11.0625 11.7188L0.890625 4.07812C0.328125 3.65625 0 3 0 2.25C0 1.03125 0.984375 0 2.25 0ZM0 5.25L10.1719 12.9375C11.25 13.7344 12.7031 13.7344 13.7812 12.9375L24 5.25V15C24 16.6875 22.6406 18 21 18H3C1.3125 18 0 16.6875 0 15V5.25Z" fill="#edebf3"/>
</g>
<defs>
<filter id="filter0_i_2356_2692" x="0" y="0" width="26" height="19" filterUnits="userSpaceOnUse" color-interpolation-filters="sRGB">
<feFlood flood-opacity="0" result="BackgroundImageFix"/>
<feBlend mode="normal" in="SourceGraphic" in2="BackgroundImageFix" result="shape"/>
<feColorMatrix in="SourceAlpha" type="matrix" values="0 0 0 0 0 0 0 0 0 0 0 0 0 0 0 0 0 0 127 0" result="hardAlpha"/>
<feOffset dx="2" dy="1"/>
<feGaussianBlur stdDeviation="2"/>
<feComposite in2="hardAlpha" operator="arithmetic" k2="-1" k3="1"/>
<feColorMatrix type="matrix" values="0 0 0 0 0.0457407 0 0 0 0 0.0791667 0 0 0 0 0.0290278 0 0 0 0.42 0"/>
<feBlend mode="normal" in2="shape" result="effect1_innerShadow_2356_2692"/>
</filter>
</defs>
</svg>
