<svg width="56" height="57" viewBox="0 0 56 57" fill="none" xmlns="http://www.w3.org/2000/svg">
<g filter="url(#filter0_dd_2061_123850)">
<rect x="3" y="4" width="48" height="48" rx="16" fill="#edebf3"/>
<path d="M26.9994 14C19.2671 14 13 20.3365 13 28.1545C13 34.9652 17.7586 40.6482 24.0969 42L24.4399 39.2328V36.4951C24.28 36.5375 24.1202 36.5788 23.958 36.6107C23.5661 36.6862 23.1636 36.7333 22.7436 36.7286C22.3248 36.7204 21.8826 36.6649 21.4405 36.4868C21.3308 36.4408 21.2235 36.3889 21.1138 36.3276C20.9983 36.2592 20.8922 36.1837 20.7988 36.1035C20.611 35.943 20.464 35.772 20.338 35.6022C20.0872 35.2624 19.9075 34.9227 19.7407 34.5972C19.5762 34.2728 19.4257 33.9543 19.2682 33.6783C19.1901 33.5427 19.1084 33.4141 19.0314 33.3233C18.9941 33.2785 18.9579 33.2431 18.9311 33.2195C18.9054 33.1994 18.8914 33.1912 18.8879 33.1853L18.6499 32.7606C18.5461 32.5754 18.6103 32.3407 18.7923 32.2357C18.8669 32.1933 18.9498 32.1779 19.0291 32.1886C19.1994 32.211 19.3499 32.2723 19.4736 32.3443C19.5961 32.4174 19.6941 32.4988 19.7804 32.5802C19.9507 32.7429 20.0732 32.9069 20.1899 33.0661C20.4174 33.3858 20.6017 33.696 20.7895 33.9862C20.975 34.2752 21.1617 34.5476 21.3565 34.7588C21.4533 34.8638 21.5501 34.951 21.64 35.01C21.6855 35.0407 21.7263 35.0607 21.7648 35.0773C21.8126 35.0961 21.8663 35.1162 21.9211 35.1315C22.3714 35.2565 22.9909 35.1787 23.5696 34.9994C23.8612 34.9086 24.1517 34.793 24.4235 34.6573C24.4469 34.6455 24.469 34.6326 24.4924 34.6208C24.5729 33.9449 24.7408 33.5332 24.9987 33.1806C21.7846 32.4658 19.4572 30.3732 19.4572 27.9021V26.3911C19.4572 25.2552 19.9495 24.2007 20.793 23.3208C20.3007 22.0244 20.5399 20.675 20.9528 19.8423C22.0996 19.8423 23.4564 20.7116 24.2555 21.3073C25.2285 21.0136 26.3018 20.8496 27.4299 20.8496C28.558 20.8496 29.6313 21.0136 30.6043 21.3073C31.4034 20.7104 32.7613 19.8423 33.907 19.8423C34.3188 20.675 34.5579 22.0244 34.0668 23.3208C34.9091 24.1995 35.4014 25.2552 35.4014 26.3911V27.9021C35.4014 30.3732 33.074 32.4658 29.86 33.1806C30.2321 33.6925 30.4188 34.3247 30.4188 35.7107V39.2363L30.7338 41.7877C36.6508 40.134 41 34.6668 41 28.1581C40.9988 20.3365 34.7318 14 26.9994 14Z" fill="#352F44"/>
</g>
<defs>
<filter id="filter0_dd_2061_123850" x="0" y="0" width="55.5" height="56.5" filterUnits="userSpaceOnUse" color-interpolation-filters="sRGB">
<feFlood flood-opacity="0" result="BackgroundImageFix"/>
<feColorMatrix in="SourceAlpha" type="matrix" values="0 0 0 0 0 0 0 0 0 0 0 0 0 0 0 0 0 0 127 0" result="hardAlpha"/>
<feOffset dx="1.5" dy="1.5"/>
<feGaussianBlur stdDeviation="1.5"/>
<feComposite in2="hardAlpha" operator="out"/>
<feColorMatrix type="matrix" values="0 0 0 0 0.573629 0 0 0 0 0.5875 0 0 0 0 0.567917 0 0 0 0.4 0"/>
<feBlend mode="normal" in2="BackgroundImageFix" result="effect1_dropShadow_2061_123850"/>
<feColorMatrix in="SourceAlpha" type="matrix" values="0 0 0 0 0 0 0 0 0 0 0 0 0 0 0 0 0 0 127 0" result="hardAlpha"/>
<feOffset dy="-1"/>
<feGaussianBlur stdDeviation="1.5"/>
<feComposite in2="hardAlpha" operator="out"/>
<feColorMatrix type="matrix" values="0 0 0 0 1 0 0 0 0 1 0 0 0 0 1 0 0 0 1 0"/>
<feBlend mode="normal" in2="effect1_dropShadow_2061_123850" result="effect2_dropShadow_2061_123850"/>
<feBlend mode="normal" in="SourceGraphic" in2="effect2_dropShadow_2061_123850" result="shape"/>
</filter>
</defs>
</svg>
