<svg width="56" height="57" viewBox="0 0 56 57" fill="none" xmlns="http://www.w3.org/2000/svg">
<g filter="url(#filter0_dd_2061_123884)">
<rect x="3" y="4" width="48" height="48" rx="16" fill="#edebf3"/>
<path d="M30.6934 27.7253C30.6934 28.8035 30.5996 29.7878 30.5059 30.7253H21.834C21.7402 29.7878 21.6934 28.8035 21.6934 27.7253C21.6934 26.6941 21.7402 25.7097 21.834 24.7253H30.5059C30.5996 25.7097 30.6934 26.6941 30.6934 27.7253ZM32.0059 24.7253H37.7715C38.0527 25.7097 38.1934 26.6941 38.1934 27.7253C38.1934 28.8035 38.0527 29.7878 37.7715 30.7253H32.0059C32.0996 29.7878 32.1934 28.7566 32.1934 27.7253C32.1934 26.6941 32.0996 25.7097 32.0059 24.7253ZM37.3027 23.2253H31.8184C31.3496 20.2722 30.4121 17.741 29.2402 16.1472C32.8965 17.1316 35.8965 19.7566 37.3027 23.2253ZM30.3184 23.2253H22.0215C22.3027 21.5378 22.7715 20.0378 23.2871 18.8191C23.8027 17.6941 24.3184 16.8972 24.8809 16.3816C25.3965 15.9128 25.8184 15.7253 26.1934 15.7253C26.5215 15.7253 26.9434 15.9128 27.459 16.3816C28.0215 16.8972 28.5371 17.6941 29.0527 18.8191C29.5684 20.0378 30.0371 21.5378 30.3184 23.2253ZM20.5215 23.2253H15.0371C16.4434 19.7566 19.4434 17.1316 23.0996 16.1472C21.9277 17.741 20.9902 20.2722 20.5215 23.2253ZM14.5684 24.7253H20.334C20.2402 25.7097 20.1934 26.6941 20.1934 27.7253C20.1934 28.7566 20.2402 29.7878 20.334 30.7253H14.5684C14.2871 29.7878 14.1934 28.8035 14.1934 27.7253C14.1934 26.6941 14.2871 25.7097 14.5684 24.7253ZM23.2871 36.6785C22.7715 35.4597 22.3027 33.9597 22.0215 32.2253H30.3184C30.0371 33.9597 29.5684 35.4597 29.0527 36.6785C28.5371 37.8035 28.0215 38.6003 27.459 39.116C26.9434 39.5847 26.5215 39.7253 26.1934 39.7253C25.8184 39.7253 25.3965 39.5847 24.8809 39.116C24.3184 38.6003 23.8027 37.8035 23.2871 36.6785ZM20.5215 32.2253C20.9902 35.2253 21.9277 37.7566 23.0996 39.3503C19.4434 38.366 16.4434 35.741 15.0371 32.2253H20.5215ZM37.3027 32.2253C35.8965 35.741 32.8965 38.366 29.2402 39.3503C30.459 37.7566 31.3496 35.2253 31.8184 32.2253H37.3027Z" fill="#352F44"/>
</g>
<defs>
<filter id="filter0_dd_2061_123884" x="0" y="0" width="55.5" height="56.5" filterUnits="userSpaceOnUse" color-interpolation-filters="sRGB">
<feFlood flood-opacity="0" result="BackgroundImageFix"/>
<feColorMatrix in="SourceAlpha" type="matrix" values="0 0 0 0 0 0 0 0 0 0 0 0 0 0 0 0 0 0 127 0" result="hardAlpha"/>
<feOffset dx="1.5" dy="1.5"/>
<feGaussianBlur stdDeviation="1.5"/>
<feComposite in2="hardAlpha" operator="out"/>
<feColorMatrix type="matrix" values="0 0 0 0 0.573629 0 0 0 0 0.5875 0 0 0 0 0.567917 0 0 0 0.4 0"/>
<feBlend mode="normal" in2="BackgroundImageFix" result="effect1_dropShadow_2061_123884"/>
<feColorMatrix in="SourceAlpha" type="matrix" values="0 0 0 0 0 0 0 0 0 0 0 0 0 0 0 0 0 0 127 0" result="hardAlpha"/>
<feOffset dy="-1"/>
<feGaussianBlur stdDeviation="1.5"/>
<feComposite in2="hardAlpha" operator="out"/>
<feColorMatrix type="matrix" values="0 0 0 0 1 0 0 0 0 1 0 0 0 0 1 0 0 0 1 0"/>
<feBlend mode="normal" in2="effect1_dropShadow_2061_123884" result="effect2_dropShadow_2061_123884"/>
<feBlend mode="normal" in="SourceGraphic" in2="effect2_dropShadow_2061_123884" result="shape"/>
</filter>
</defs>
</svg>
