<svg width="24" height="24" viewBox="0 0 24 24" fill="none" xmlns="http://www.w3.org/2000/svg">
<rect width="24" height="24" rx="4" fill="#edebf3"/>
<path d="M20.1202 3.85718L13.2656 8.94818L14.5332 5.94456L20.1202 3.85718Z" fill="#E2761B" stroke="#E2761B" stroke-width="0.0878845" stroke-linecap="round" stroke-linejoin="round"/>
<path d="M4.29492 3.85718L11.0944 8.9964L9.88883 5.94456L4.29492 3.85718Z" fill="#E4761B" stroke="#E4761B" stroke-width="0.0878845" stroke-linecap="round" stroke-linejoin="round"/>
<path d="M17.6537 15.6581L15.8281 18.455L19.7342 19.5297L20.8571 15.7201L17.6537 15.6581Z" fill="#E4761B" stroke="#E4761B" stroke-width="0.0878845" stroke-linecap="round" stroke-linejoin="round"/>
<path d="M3.57227 15.7201L4.68829 19.5297L8.59438 18.455L6.76878 15.6581L3.57227 15.7201Z" fill="#E4761B" stroke="#E4761B" stroke-width="0.0878845" stroke-linecap="round" stroke-linejoin="round"/>
<path d="M8.37363 10.9323L7.28516 12.5788L11.1637 12.751L11.0259 8.58313L8.37363 10.9323Z" fill="#E4761B" stroke="#E4761B" stroke-width="0.0878845" stroke-linecap="round" stroke-linejoin="round"/>
<path d="M16.0419 10.9322L13.3552 8.53479L13.2656 12.7509L17.1373 12.5787L16.0419 10.9322Z" fill="#E4761B" stroke="#E4761B" stroke-width="0.0878845" stroke-linecap="round" stroke-linejoin="round"/>
<path d="M8.59375 18.4552L10.9222 17.3185L8.91065 15.7478L8.59375 18.4552Z" fill="#E4761B" stroke="#E4761B" stroke-width="0.0878845" stroke-linecap="round" stroke-linejoin="round"/>
<path d="M13.4922 17.3185L15.8276 18.4552L15.5038 15.7478L13.4922 17.3185Z" fill="#E4761B" stroke="#E4761B" stroke-width="0.0878845" stroke-linecap="round" stroke-linejoin="round"/>
<path d="M15.8276 18.4552L13.4922 17.3185L13.6782 18.841L13.6575 19.4816L15.8276 18.4552Z" fill="#D7C1B3" stroke="#D7C1B3" stroke-width="0.0878845" stroke-linecap="round" stroke-linejoin="round"/>
<path d="M8.59375 18.4552L10.7638 19.4816L10.75 18.841L10.9222 17.3185L8.59375 18.4552Z" fill="#D7C1B3" stroke="#D7C1B3" stroke-width="0.0878845" stroke-linecap="round" stroke-linejoin="round"/>
<path d="M10.7982 14.7419L8.85547 14.1701L10.2264 13.5432L10.7982 14.7419Z" fill="#233447" stroke="#233447" stroke-width="0.0878845" stroke-linecap="round" stroke-linejoin="round"/>
<path d="M13.6172 14.7419L14.189 13.5432L15.5668 14.1701L13.6172 14.7419Z" fill="#233447" stroke="#233447" stroke-width="0.0878845" stroke-linecap="round" stroke-linejoin="round"/>
<path d="M8.59513 18.4552L8.9258 15.6582L6.76953 15.7202L8.59513 18.4552Z" fill="#CD6116" stroke="#CD6116" stroke-width="0.0878845" stroke-linecap="round" stroke-linejoin="round"/>
<path d="M15.498 15.6582L15.8287 18.4552L17.6543 15.7202L15.498 15.6582Z" fill="#CD6116" stroke="#CD6116" stroke-width="0.0878845" stroke-linecap="round" stroke-linejoin="round"/>
<path d="M17.1373 12.5787L13.2656 12.751L13.6239 14.7419L14.1956 13.5432L15.5735 14.1701L17.1373 12.5787Z" fill="#CD6116" stroke="#CD6116" stroke-width="0.0878845" stroke-linecap="round" stroke-linejoin="round"/>
<path d="M8.85781 14.1701L10.2356 13.5432L10.8005 14.7419L11.1656 12.751L7.28711 12.5787L8.85781 14.1701Z" fill="#CD6116" stroke="#CD6116" stroke-width="0.0878845" stroke-linecap="round" stroke-linejoin="round"/>
<path d="M7.28516 12.5787L8.91097 15.7477L8.85586 14.1701L7.28516 12.5787Z" fill="#E4751F" stroke="#E4751F" stroke-width="0.0878845" stroke-linecap="round" stroke-linejoin="round"/>
<path d="M15.5728 14.1701L15.5039 15.7477L17.1366 12.5787L15.5728 14.1701Z" fill="#E4751F" stroke="#E4751F" stroke-width="0.0878845" stroke-linecap="round" stroke-linejoin="round"/>
<path d="M11.1639 12.751L10.7988 14.7419L11.2535 17.0911L11.3568 13.9979L11.1639 12.751Z" fill="#E4751F" stroke="#E4751F" stroke-width="0.0878845" stroke-linecap="round" stroke-linejoin="round"/>
<path d="M13.2641 12.751L13.0781 13.991L13.1608 17.0911L13.6224 14.7419L13.2641 12.751Z" fill="#E4751F" stroke="#E4751F" stroke-width="0.0878845" stroke-linecap="round" stroke-linejoin="round"/>
<path d="M13.6237 14.742L13.1621 17.0911L13.4928 17.3185L15.5044 15.7478L15.5733 14.1702L13.6237 14.742Z" fill="#F6851B" stroke="#F6851B" stroke-width="0.0878845" stroke-linecap="round" stroke-linejoin="round"/>
<path d="M8.85547 14.1702L8.91058 15.7478L10.9222 17.3185L11.2529 17.0911L10.7982 14.742L8.85547 14.1702Z" fill="#F6851B" stroke="#F6851B" stroke-width="0.0878845" stroke-linecap="round" stroke-linejoin="round"/>
<path d="M13.6572 19.4815L13.6779 18.8409L13.5056 18.6893H10.9085L10.75 18.8409L10.7638 19.4815L8.59375 18.4551L9.35154 19.0751L10.8878 20.1429H13.5263L15.0695 19.0751L15.8272 18.4551L13.6572 19.4815Z" fill="#C0AD9E" stroke="#C0AD9E" stroke-width="0.0878845" stroke-linecap="round" stroke-linejoin="round"/>
<path d="M13.4918 17.3183L13.1612 17.0909H11.2529L10.9222 17.3183L10.75 18.8408L10.9084 18.6892H13.5056L13.6778 18.8408L13.4918 17.3183Z" fill="#161616" stroke="#161616" stroke-width="0.0878845" stroke-linecap="round" stroke-linejoin="round"/>
<path d="M20.4088 9.27886L20.9944 6.46813L20.1194 3.85718L13.4922 8.77596L16.0411 10.9322L19.6441 11.9863L20.4432 11.0562L20.0988 10.8082L20.6499 10.3053L20.2228 9.97465L20.7739 9.55442L20.4088 9.27886Z" fill="#763D16" stroke="#763D16" stroke-width="0.0878845" stroke-linecap="round" stroke-linejoin="round"/>
<path d="M3.42773 6.46813L4.0133 9.27886L3.64129 9.55442L4.19242 9.97465L3.77219 10.3053L4.32331 10.8082L3.97886 11.0562L4.7711 11.9863L8.37407 10.9322L10.923 8.77596L4.29575 3.85718L3.42773 6.46813Z" fill="#763D16" stroke="#763D16" stroke-width="0.0878845" stroke-linecap="round" stroke-linejoin="round"/>
<path d="M19.6442 11.9863L16.0413 10.9323L17.1366 12.5787L15.5039 15.7477L17.6533 15.7201H20.8567L19.6442 11.9863Z" fill="#F6851B" stroke="#F6851B" stroke-width="0.0878845" stroke-linecap="round" stroke-linejoin="round"/>
<path d="M8.37393 10.9323L4.77096 11.9863L3.57227 15.7201H6.76878L8.91127 15.7477L7.28546 12.5787L8.37393 10.9323Z" fill="#F6851B" stroke="#F6851B" stroke-width="0.0878845" stroke-linecap="round" stroke-linejoin="round"/>
<path d="M13.2643 12.751L13.4916 8.77598L14.5388 5.94458H9.88867L10.922 8.77598L11.1631 12.751L11.2458 14.0048L11.2527 17.0911H13.161L13.1747 14.0048L13.2643 12.751Z" fill="#F6851B" stroke="#F6851B" stroke-width="0.0878845" stroke-linecap="round" stroke-linejoin="round"/>
</svg>
