<svg width="20" height="20" viewBox="0 0 20 20" fill="none" xmlns="http://www.w3.org/2000/svg">
<g id="MATIC" clip-path="url(#clip0_2242_55209)">
<path id="Vector" d="M10 20C15.5228 20 20 15.5228 20 10C20 4.47715 15.5228 0 10 0C4.47715 0 0 4.47715 0 10C0 15.5228 4.47715 20 10 20Z" fill="#8247E5"/>
<path id="Vector_2" d="M13.31 7.86047C13.0701 7.72094 12.7583 7.72094 12.4945 7.86047L10.6236 8.93024L9.3524 9.62791L7.48156 10.6977C7.2417 10.8372 6.9299 10.8372 6.66605 10.6977L5.17896 9.86047C4.93912 9.72094 4.77123 9.46512 4.77123 9.18604V7.53488C4.77123 7.25582 4.91514 7 5.17896 6.86047L6.64207 6.0465C6.88191 5.90697 7.19373 5.90697 7.45758 6.0465L8.92066 6.86047C9.16053 7 9.32842 7.25582 9.32842 7.53488V8.60465L10.5996 7.88371V6.81395C10.5996 6.53488 10.4557 6.27906 10.1919 6.13953L7.48156 4.60465C7.2417 4.46512 6.9299 4.46512 6.66605 4.60465L3.90775 6.13953C3.64391 6.27906 3.5 6.53488 3.5 6.81395V9.90697C3.5 10.186 3.64391 10.4419 3.90775 10.5814L6.66605 12.1163C6.90592 12.2558 7.21771 12.2558 7.48156 12.1163L9.3524 11.0698L10.6236 10.3488L12.4945 9.30233C12.7343 9.16279 13.0461 9.16279 13.31 9.30233L14.7731 10.1163C15.0129 10.2558 15.1808 10.5116 15.1808 10.7907V12.4419C15.1808 12.7209 15.0369 12.9767 14.7731 13.1163L13.31 13.9535C13.0701 14.093 12.7583 14.093 12.4945 13.9535L11.0314 13.1395C10.7915 13 10.6236 12.7442 10.6236 12.4651V11.3954L9.3524 12.1163V13.186C9.3524 13.4651 9.49631 13.7209 9.76016 13.8605L12.5185 15.3954C12.7583 15.5349 13.0701 15.5349 13.3339 15.3954L16.0922 13.8605C16.3321 13.7209 16.5 13.4651 16.5 13.186V10.093C16.5 9.81395 16.3561 9.55815 16.0922 9.4186L13.31 7.86047Z" fill="white"/>
</g>
<defs>
<clipPath id="clip0_2242_55209">
<rect width="20" height="20" fill="white"/>
</clipPath>
</defs>
</svg>
