<svg width="56" height="57" viewBox="0 0 56 57" fill="none" xmlns="http://www.w3.org/2000/svg">
<g filter="url(#filter0_dd_2061_123849)">
<rect x="3" y="4" width="48" height="48" rx="16" fill="#edebf3" shape-rendering="crispEdges"/>
<path d="M27 37V37.0469C25.2188 37.0469 23.5781 36.7188 22.0781 36.2031C21.5625 36.5781 20.625 37.1406 19.5469 37.6094C18.4219 38.125 17.0625 38.5469 15.75 38.5469C15.4219 38.5469 15.1406 38.3594 15.0469 38.0781C14.9062 37.7969 15 37.4688 15.1875 37.2344C15.2344 37.2344 15.2344 37.1875 15.2812 37.1875C15.3281 37.0938 15.4219 37 15.5156 36.9062C15.7031 36.6719 15.9375 36.2969 16.2188 35.875C16.6875 35.125 17.1094 34.0938 17.2031 32.9219C15.7969 31.3281 15 29.4062 15 27.25C15 21.9062 20.3438 17.5 27 17.5C33.6094 17.5 39 21.9062 39 27.25C39 32.6406 33.6094 37 27 37ZM24.4688 24.2969C24.1875 24.3906 24 24.7188 24 25V29.5C24 29.9219 24.3281 30.25 24.75 30.25C25.125 30.25 25.5 29.9219 25.5 29.5V27.25L26.3906 28.4688C26.5312 28.6562 26.7656 28.75 27 28.75C27.2344 28.75 27.4219 28.6562 27.5625 28.4688L28.5 27.25V29.5C28.5 29.9219 28.8281 30.25 29.25 30.25C29.625 30.25 30 29.9219 30 29.5V25C30 24.7188 29.7656 24.3906 29.4844 24.2969C29.1562 24.2031 28.8281 24.2969 28.6406 24.5781L27 26.7812L25.3125 24.5781C25.125 24.2969 24.7969 24.2031 24.4688 24.2969ZM32.625 26.0781C32.625 26.0312 32.625 25.9844 32.625 25.9844C32.625 25.9844 32.6719 25.9375 32.7188 25.8906C32.8594 25.7969 33.0938 25.75 33.3281 25.75C33.6094 25.75 33.9375 25.8438 34.2656 25.9375C34.6875 26.0312 35.1094 25.7969 35.2031 25.375C35.2969 25 35.0625 24.5781 34.6875 24.4844C34.2656 24.3906 33.8438 24.25 33.375 24.25C32.9531 24.25 32.3906 24.3438 31.9688 24.625C31.5 24.9062 31.0781 25.375 31.125 26.0781C31.125 26.7812 31.5 27.2031 31.9219 27.4844C32.2969 27.6719 32.7188 27.8125 33.0938 27.9062L33.1406 27.9531C33.5156 28.0469 33.7969 28.1406 33.9844 28.2812C34.0781 28.3281 34.0781 28.375 34.0781 28.4219C34.0781 28.4688 34.0781 28.5156 34.0781 28.5625C34.0781 28.5625 34.0312 28.6094 33.9844 28.6562C33.8438 28.7031 33.6094 28.7969 33.375 28.75C33.0469 28.75 32.7188 28.6562 32.2969 28.5156C32.25 28.4688 32.1562 28.4688 32.0625 28.4219C31.6875 28.2812 31.2656 28.5156 31.125 28.8906C30.9844 29.3125 31.2188 29.7344 31.5938 29.875C31.6875 29.875 31.7344 29.875 31.7812 29.9219C32.2031 30.0625 32.7656 30.25 33.3281 30.25C33.7969 30.2969 34.3125 30.2031 34.7812 29.9219C35.25 29.5938 35.625 29.0781 35.5781 28.375C35.5781 27.7188 35.2031 27.25 34.7812 27.0156C34.4062 26.7812 33.9375 26.6406 33.6094 26.5H33.5625C33.1406 26.3594 32.9062 26.3125 32.7188 26.1719C32.625 26.125 32.625 26.125 32.625 26.125V26.0781ZM19.875 26.0781C19.875 26.0312 19.875 26.0312 19.875 25.9844C19.875 25.9844 19.9219 25.9375 19.9688 25.8906C20.1094 25.7969 20.3438 25.75 20.5781 25.75C20.9062 25.75 21.375 25.8438 21.7031 25.9375C22.0781 26.0312 22.5 25.7969 22.5938 25.375C22.6875 25 22.4531 24.5781 22.0781 24.4844C21.6562 24.3906 21.0469 24.2969 20.625 24.25C20.2031 24.25 19.6406 24.3438 19.2188 24.625C18.75 24.9062 18.3281 25.375 18.375 26.0781C18.375 26.7812 18.75 27.2031 19.1719 27.4844C19.5469 27.6719 19.9688 27.8125 20.3438 27.9062L20.3906 27.9531C20.7656 28.0469 21.0469 28.1406 21.2344 28.2812C21.375 28.3281 21.375 28.375 21.375 28.4219C21.375 28.4688 21.3281 28.5156 21.3281 28.5625C21.3281 28.5625 21.2812 28.6094 21.2344 28.6562C21.0938 28.7031 20.8594 28.7969 20.625 28.75C20.2969 28.75 19.9688 28.6562 19.5 28.5156C19.4531 28.4688 19.4062 28.4688 19.3125 28.4219C18.9375 28.2812 18.5156 28.5156 18.375 28.8906C18.2344 29.3125 18.4688 29.7344 18.8438 29.875C18.8906 29.875 18.9375 29.875 19.0312 29.9219C19.4531 30.0625 20.0156 30.25 20.5781 30.25C21.0469 30.2969 21.5625 30.2031 22.0312 29.9219C22.5 29.5938 22.875 29.0781 22.8281 28.375C22.8281 27.7188 22.4531 27.25 22.0312 27.0156C21.6562 26.7812 21.1875 26.6406 20.8594 26.5H20.8125C20.3906 26.3594 20.1562 26.3125 19.9688 26.1719C19.875 26.125 19.875 26.125 19.875 26.125V26.0781Z" fill="#352F44"/>
</g>
<defs>
<filter id="filter0_dd_2061_123849" x="0" y="0" width="55.5" height="56.5" filterUnits="userSpaceOnUse" color-interpolation-filters="sRGB">
<feFlood flood-opacity="0" result="BackgroundImageFix"/>
<feColorMatrix in="SourceAlpha" type="matrix" values="0 0 0 0 0 0 0 0 0 0 0 0 0 0 0 0 0 0 127 0" result="hardAlpha"/>
<feOffset dx="1.5" dy="1.5"/>
<feGaussianBlur stdDeviation="1.5"/>
<feComposite in2="hardAlpha" operator="out"/>
<feColorMatrix type="matrix" values="0 0 0 0 0.573629 0 0 0 0 0.5875 0 0 0 0 0.567917 0 0 0 0.4 0"/>
<feBlend mode="normal" in2="BackgroundImageFix" result="effect1_dropShadow_2061_123849"/>
<feColorMatrix in="SourceAlpha" type="matrix" values="0 0 0 0 0 0 0 0 0 0 0 0 0 0 0 0 0 0 127 0" result="hardAlpha"/>
<feOffset dy="-1"/>
<feGaussianBlur stdDeviation="1.5"/>
<feComposite in2="hardAlpha" operator="out"/>
<feColorMatrix type="matrix" values="0 0 0 0 1 0 0 0 0 1 0 0 0 0 1 0 0 0 1 0"/>
<feBlend mode="normal" in2="effect1_dropShadow_2061_123849" result="effect2_dropShadow_2061_123849"/>
<feBlend mode="normal" in="SourceGraphic" in2="effect2_dropShadow_2061_123849" result="shape"/>
</filter>
</defs>
</svg>
