<svg width="24" height="24" viewBox="0 0 24 24" fill="none" xmlns="http://www.w3.org/2000/svg">
<g filter="#edebf3">
<path d="M12 0.375C18.375 0.375 23.625 5.625 23.625 12C23.625 18.4219 18.375 23.625 12 23.625C5.57812 23.625 0.375 18.4219 0.375 12C0.375 5.625 5.57812 0.375 12 0.375ZM17.3438 8.29688C17.3906 8.15625 17.3906 8.01562 17.3438 7.82812C17.3438 7.73438 17.25 7.59375 17.2031 7.54688C17.0625 7.40625 16.8281 7.40625 16.7344 7.40625C16.3125 7.40625 15.6094 7.64062 12.375 9C11.25 9.46875 9 10.4062 5.625 11.9062C5.0625 12.1406 4.78125 12.3281 4.73438 12.5625C4.6875 12.9375 5.29688 13.0781 6 13.3125C6.60938 13.5 7.40625 13.7344 7.82812 13.7344C8.20312 13.7344 8.625 13.5938 9.09375 13.2656C12.2344 11.1094 13.875 10.0312 13.9688 10.0312C14.0625 10.0312 14.1562 9.98438 14.2031 10.0312C14.2969 10.125 14.2969 10.2188 14.25 10.2656C14.2031 10.5 11.25 13.2188 11.0625 13.4062C10.4062 14.0625 9.65625 14.4844 10.8281 15.2344C11.8125 15.8906 12.375 16.3125 13.4062 16.9688C14.0625 17.3906 14.5781 17.9062 15.2344 17.8594C15.5625 17.8125 15.8906 17.5312 16.0312 16.6406C16.4531 14.625 17.2031 10.125 17.3438 8.29688Z" fill="#edebf3"/>
</g>
<defs>
<filter id="filter0_i_2356_2679" x="0.375" y="0.375" width="25.25" height="24.25" filterUnits="userSpaceOnUse" color-interpolation-filters="sRGB">
<feFlood flood-opacity="0" result="BackgroundImageFix"/>
<feBlend mode="normal" in="SourceGraphic" in2="BackgroundImageFix" result="shape"/>
<feColorMatrix in="SourceAlpha" type="matrix" values="0 0 0 0 0 0 0 0 0 0 0 0 0 0 0 0 0 0 127 0" result="hardAlpha"/>
<feOffset dx="2" dy="1"/>
<feGaussianBlur stdDeviation="2"/>
<feComposite in2="hardAlpha" operator="arithmetic" k2="-1" k3="1"/>
<feColorMatrix type="matrix" values="0 0 0 0 0.0457407 0 0 0 0 0.0791667 0 0 0 0 0.0290278 0 0 0 0.42 0"/>
<feBlend mode="normal" in2="shape" result="effect1_innerShadow_2356_2679"/>
</filter>
</defs>
</svg>
