<svg width="56" height="57" viewBox="0 0 56 57" fill="none" xmlns="http://www.w3.org/2000/svg">
<g filter="url(#filter0_dd_2061_124243)">
<rect x="3" y="4" width="48" height="48" rx="16" fill="#edebf3"/>
<path d="M17.1934 17.2253H35.1934C35.9902 17.2253 36.6934 17.9285 36.6934 18.7253C36.6934 19.5691 35.9902 20.2253 35.1934 20.2253H17.9434C17.5215 20.2253 17.1934 20.6003 17.1934 20.9753C17.1934 21.3972 17.5215 21.7253 17.9434 21.7253H35.1934C36.834 21.7253 38.1934 23.0847 38.1934 24.7253V35.2253C38.1934 36.9128 36.834 38.2253 35.1934 38.2253H17.1934C15.5059 38.2253 14.1934 36.9128 14.1934 35.2253V20.2253C14.1934 18.5847 15.5059 17.2253 17.1934 17.2253ZM33.6934 28.4753C32.8496 28.4753 32.1934 29.1785 32.1934 29.9753C32.1934 30.8191 32.8496 31.4753 33.6934 31.4753C34.4902 31.4753 35.1934 30.8191 35.1934 29.9753C35.1934 29.1785 34.4902 28.4753 33.6934 28.4753Z" fill="#352F44"/>
</g>
<defs>
<filter id="filter0_dd_2061_124243" x="0" y="0" width="55.5" height="56.5" filterUnits="userSpaceOnUse" color-interpolation-filters="sRGB">
<feFlood flood-opacity="0" result="BackgroundImageFix"/>
<feColorMatrix in="SourceAlpha" type="matrix" values="0 0 0 0 0 0 0 0 0 0 0 0 0 0 0 0 0 0 127 0" result="hardAlpha"/>
<feOffset dx="1.5" dy="1.5"/>
<feGaussianBlur stdDeviation="1.5"/>
<feComposite in2="hardAlpha" operator="out"/>
<feColorMatrix type="matrix" values="0 0 0 0 0.121111 0 0 0 0 0.133333 0 0 0 0 0.115 0 0 0 1 0"/>
<feBlend mode="normal" in2="BackgroundImageFix" result="effect1_dropShadow_2061_124243"/>
<feColorMatrix in="SourceAlpha" type="matrix" values="0 0 0 0 0 0 0 0 0 0 0 0 0 0 0 0 0 0 127 0" result="hardAlpha"/>
<feOffset dy="-1"/>
<feGaussianBlur stdDeviation="1.5"/>
<feComposite in2="hardAlpha" operator="out"/>
<feColorMatrix type="matrix" values="0 0 0 0 0.225625 0 0 0 0 0.2375 0 0 0 0 0.219688 0 0 0 1 0"/>
<feBlend mode="normal" in2="effect1_dropShadow_2061_124243" result="effect2_dropShadow_2061_124243"/>
<feBlend mode="normal" in="SourceGraphic" in2="effect2_dropShadow_2061_124243" result="shape"/>
</filter>
</defs>
</svg>
