<svg width="16" height="16" viewBox="0 0 16 16" fill="none" xmlns="http://www.w3.org/2000/svg">
<g>
<path d="M15.0312 3.07812L10.1094 8L15.0312 12.9688C15.6406 13.5312 15.6406 14.5156 15.0312 15.0781C14.4688 15.6875 13.4844 15.6875 12.9219 15.0781L8 10.1562L3.03125 15.0781C2.46875 15.6875 1.48438 15.6875 0.921875 15.0781C0.3125 14.5156 0.3125 13.5312 0.921875 12.9688L5.84375 8L0.921875 3.07812C0.3125 2.51562 0.3125 1.53125 0.921875 0.96875C1.48438 0.359375 2.46875 0.359375 3.03125 0.96875L8 5.89062L12.9219 0.96875C13.4844 0.359375 14.4688 0.359375 15.0312 0.96875C15.6406 1.53125 15.6406 2.51562 15.0312 3.07812Z" fill="#edebf3"/>
</g>
<defs>
<filter id="filter0_i_2575_560" x="0.3125" y="0.359375" width="17.3281" height="16.3281" filterUnits="userSpaceOnUse" color-interpolation-filters="sRGB">
<feFlood flood-opacity="0" result="BackgroundImageFix"/>
<feBlend mode="normal" in="SourceGraphic" in2="BackgroundImageFix" result="shape"/>
<feColorMatrix in="SourceAlpha" type="matrix" values="0 0 0 0 0 0 0 0 0 0 0 0 0 0 0 0 0 0 127 0" result="hardAlpha"/>
<feOffset dx="2" dy="1"/>
<feGaussianBlur stdDeviation="2"/>
<feComposite in2="hardAlpha" operator="arithmetic" k2="-1" k3="1"/>
<feColorMatrix type="matrix" values="0 0 0 0 0.0457407 0 0 0 0 0.0791667 0 0 0 0 0.0290278 0 0 0 0.42 0"/>
<feBlend mode="normal" in2="shape" result="effect1_innerShadow_2575_560"/>
</filter>
</defs>
</svg>
